# xmcd
#
# Track frame offsets: 
#        150
#        18829
#        37279
#        48768
#        63570
#        79120
#        94703
#        111844
#        124580
#        139290
#        159394
#        176593
#        194647
#        206911
#        231509
#        248220
#        267434
#        285373
#        301027
#
# Disc length: 4246 seconds
#
# Revision: 0
# Processed by: cddbd v1.5.2PL0 Copyright (c) Steve Scherf et al.
# Submitted via: ExactAudioCopy v0.99pb1
#
DISCID=11109413
DTITLE=Kantoris 04 - Labakas dziesmas
DYEAR=1998
DGENRE=Country-Rock
TTITLE0=Sapniem lidzi
TTITLE1=Tala meitene
TTITLE2=Nelej asaras
TTITLE3=Sartas rozes
TTITLE4=Hei Suzi
TTITLE5=Sindij, Sindij
TTITLE6=O, mana maza
TTITLE7=Mans draudzin
TTITLE8=Zemes vejs
TTITLE9=Balts rits
TTITLE10=Ja ta tad ta
TTITLE11=Sapnu zvaigznes
TTITLE12=Dejosim sonakt
TTITLE13=Atminas
TTITLE14=Pie tevis
TTITLE15=Es projam eju
TTITLE16=Flamingo
TTITLE17=Vins un dziesmas
TTITLE18=Balts zvaigznu cels
EXTD=
EXTT0=
EXTT1=
EXTT2=
EXTT3=
EXTT4=
EXTT5=
EXTT6=
EXTT7=
EXTT8=
EXTT9=
EXTT10=
EXTT11=
EXTT12=
EXTT13=
EXTT14=
EXTT15=
EXTT16=
EXTT17=
EXTT18=
PLAYORDER=
